<svg xmlns="http://www.w3.org/2000/svg" viewBox="0 0 1007 848.5"><defs>
<filter id="f2" x="0" y="0" width="200%" height="200%">
      <feOffset result="offOut" in="SourceGraphic" dx="0" dy="0" />
      <feGaussianBlur result="blurOut" in="offOut" stdDeviation="100" />
      <feBlend in="SourceGraphic" in2="blurOut" mode="normal" />
    </filter>
<style>
svg {
    transform: scale(0.5);
}
.cls-1{
    fill:gray;
    transition: all 3s ease-in-out;
}
.cls-1:nth-child(even){
    animation: 3s linear 1.75s switch-cls-1 infinite alternate;
}
.cls-1:nth-child(odd){
    animation: 3s linear 2s switch-cls-1-odd infinite alternate;
}
.cls-2{
    fill:#8b8b8b;
    transition: all 3s ease-in-out;
}
.cls-2:nth-child(even){
    animation: 3s linear 2.25s switch-cls-2 infinite alternate;
}
.cls-2:nth-child(odd){
    animation: 3s linear 2.25s switch-cls-2-odd infinite alternate;
}
.cls-3{
    fill:#404040;
    transition: all 3s ease-in-out;
}
.cls-3:nth-child(even){
    animation: 3s linear 2.75s switch-cls-3 infinite alternate;
}
.cls-3:nth-child(odd){
    animation: 3s linear 3s switch-cls-3-odd infinite alternate;
}
.cls-4{
    fill:#707070;
    transition: all 3s ease-in-out;
}
.cls-4:nth-child(even) {
    animation: 3s linear 3.5s switch-cls-4 infinite alternate;
}
.cls-4:nth-child(odd) {
    animation: 3s linear 3.25s switch-cls-4-odd infinite alternate;
}
.cls-5{ 
    animation: 3s linear 1s glow infinite alternate;
    position: relative;
    z-index: 100;
    transition: all 3s ease-in-out;
    filter: url(#f2);
}

@keyframes glow {
    from {
        fill:#3e98c7;
    }
    to {
        fill:#f00;
    }
}
@keyframes switch-cls-1 {
    from {
        fill:gray;
    }
    to {
        fill:darkgray;
    }
}
@keyframes switch-cls-1-odd {
    from {
        fill:gray;
    }
    to {
        fill:#999999;
    }
}
@keyframes switch-cls-2 {
    from {
        fill:#8b8b8b;
    }
    to {
        fill:#7e7d7d;
    }
}
@keyframes switch-cls-2-odd {
    from {
        fill:#8b8b8b;
    }
    to {
        fill:#595959;
    }
}
@keyframes switch-cls-3 {
    from {
        fill:#8b8b8b;
    }
    to {
        fill:#7e7d7d;
    }
}
@keyframes switch-cls-3-odd {
    from {
        fill:#8b8b8b;
    }
    to {
        fill:#666666;
    }
}
@keyframes switch-cls-4 {
    from {
        fill:#707070;
    }
    to {
        fill:#959595;
    }
}
@keyframes switch-cls-4-odd {
    from {
        fill:#707070;
    }
    to {
        fill:#9e9e9e;
    }
}
</style>
</defs>
<title>deer</title>
<g id="Layer_2" data-name="Layer 2"><g id="Layer_1-2" data-name="Layer 1"><polygon class="cls-1" points="503.5 832.39 503.5 848.5 485.5 846.61 503.5 832.39"/><polygon class="cls-1" points="503.5 832 503.5 832.39 485.5 846.61 484.5 846.5 450.49 828.04 503.5 832"/><polygon class="cls-2" points="503.5 818 503.5 832 479 818 503.5 818"/><polygon class="cls-3" points="503.5 800 503.5 817 503 817 494 800 503.5 800"/><polygon class="cls-3" points="503.5 791 503.5 800 494 800 503.5 791"/><polygon class="cls-3" points="503.5 783 503.5 791 497 791 503 783 503.5 783"/><polygon class="cls-4" points="503.5 750 503.5 783 503 783 496 783 502.82 750.85 503.5 750"/><polygon class="cls-1" points="503.5 668 503.5 695 503 695 488 683 503 668 503.5 668"/><polygon class="cls-4" points="503.5 641.91 503.5 668 503 668 491.03 660.02 491.04 659.94 503.5 641.91"/><polygon class="cls-4" points="503.5 569.63 503.5 641.91 496.1 623.26 496.18 622.7 503.5 569.63"/><polygon class="cls-4" points="503.5 566.88 503.5 569.63 496.18 622.7 481.62 605.49 503.5 566.88"/><polygon class="cls-4" points="503.5 565.5 503.5 566.08 472 571 471 560 503.5 565.5"/><polygon class="cls-4" points="496.1 623.26 503.5 641.91 491.04 659.94 491.05 659.88 496.1 623.26"/><polygon class="cls-4" points="503.5 750 502.99 750.05 503 750 494.03 731.59 503 695 503.5 695 503.5 750"/><polygon class="cls-4" points="503.5 791 494 800 497 791 503.5 791"/><polygon class="cls-2" points="503.5 832 450.49 828.04 450.26 827.91 479 818 503.5 832"/><polygon class="cls-3" points="503.5 818 479 818 489 808 503 817 503.5 817 503.5 818"/><polygon class="cls-4" points="503 695 494.03 731.59 484 711 503 695"/><polygon class="cls-4" points="494.03 731.59 503 750 502.99 750.05 483.05 751.9 494.03 731.59"/><polygon class="cls-3" points="503 783 497 791 496 783 503 783"/><polygon class="cls-4" points="494 800 503 817 489 808 494 800"/><polygon class="cls-1" points="503 695 484 711 487.86 682.98 488 683 503 695"/><polygon class="cls-4" points="502.82 750.85 496 783 481 778 502.82 750.85"/><polygon class="cls-3" points="496 783 497 791 481 783 496 783"/><polygon class="cls-3" points="497 791 494 800 488 798 497 791"/><polygon class="cls-3" points="497 791 488 798 481 783 497 791"/><polygon class="cls-3" points="496 783 481 783 481 778 496 783"/><polygon class="cls-1" points="484 711 494.03 731.59 483.05 751.9 483 751.91 484 711"/><polygon class="cls-3" points="494 800 488 805 488 804.53 488 798 494 800"/><polygon class="cls-3" points="494 800 489 808 488 805 494 800"/><polygon class="cls-3" points="488 805 489 808 479 811 488 805"/><polygon class="cls-3" points="489 808 479 818 478 814 489 808"/><polygon class="cls-3" points="488 804.53 488 805 479 811 466 799 488 804.53"/><polygon class="cls-3" points="488 798 488 804.53 470 788 488 798"/><polygon class="cls-4" points="487.93 682.5 491.03 660.02 503 668 488 683 487.86 682.98 487.93 682.5"/><polygon class="cls-3" points="481 783 488 798 470 788 481 783"/><polygon points="488 804.53 466 799 470 788 488 804.53"/><polygon class="cls-4" points="483 752 483.05 751.9 502.99 750.05 502.82 750.85 481 778 482.8 752 482.79 751.93 483 751.91 483 752"/><polygon class="cls-3" points="481 778 481 783 470 784 481 778"/><polygon class="cls-3" points="481 778 470 784 464 779 481 778"/><polygon class="cls-3" points="481 783 470 788 470 784 481 783"/><polygon class="cls-3" points="479 811 489 808 478 814 479 811"/><polygon class="cls-3" points="479 811 478 814 467.26 809.88 466 809 479 811"/><polygon class="cls-3" points="479 811 466 809 466 799 479 811"/><polygon class="cls-2" points="479 818 450.26 827.91 450.13 827.84 465.75 809.29 467.26 809.88 479 818"/><polygon class="cls-3" points="479 818 467.26 809.88 478 814 479 818"/><polygon class="cls-3" points="470 784 470 788 459.45 792.45 459.15 792.15 470 784"/><polygon class="cls-3" points="470 788 466 799 459.45 792.45 470 788"/><polygon class="cls-3" points="470 784 459.15 792.15 459 792 461.33 785.94 464 779 470 784"/><polygon class="cls-2" points="464 779 482.8 752 481 778 464 779"/><polygon class="cls-2" points="466.2 632.71 496.18 622.7 496.1 623.26 491.05 659.88 466.2 632.71"/><polygon class="cls-4" points="466.2 632.71 481.62 605.49 496.18 622.7 466.2 632.71"/><polygon class="cls-4" points="503.5 566.23 463 585 472 571 503.5 566.08 503.5 566.23"/><polygon class="cls-4" points="463 585 503.5 566.23 503.5 566.88 481.62 605.49 466.2 632.71 461.81 640.45 463 585"/><polygon class="cls-2" points="448.65 778.48 484 711 483 751.91 482.79 751.93 482 752 448.65 778.48"/><polygon class="cls-2" points="467.26 809.88 465.75 809.29 466 809 467.26 809.88"/><polygon class="cls-2" points="448.65 778.48 482 752 482.79 751.93 482.8 752 464 779 448.38 779 448.65 778.48"/><path class="cls-2" d="M466.25,799.25v10h0l-24.84,1,0,0Z" transform="translate(-0.25 -0.25)"/><path class="cls-2" d="M466.25,809.25l-.25.29-.4-.15a3.07,3.07,0,0,1,.64-.14Z" transform="translate(-0.25 -0.25)"/><path class="cls-2" d="M441.4,810.24l24.84-1a3.07,3.07,0,0,0-.64.14l.4.15-15.62,18.55-.63-.34-7.3-15.3Z" transform="translate(-0.25 -0.25)"/><polygon class="cls-2" points="464 779 461.33 785.94 459 792 448 779.73 448.38 779 464 779"/><path class="cls-2" d="M459.4,792.4l.3.3-.42.17a.15.15,0,0,1-.14-.27Z" transform="translate(-0.25 -0.25)"/><path class="cls-2" d="M459.25,792.25l.15.15-.26.2a.15.15,0,0,0,.14.27l.42-.17,6.55,6.55-24.88,11,0-.05Z" transform="translate(-0.25 -0.25)"/><polygon class="cls-2" points="487.93 682.5 453 656 491.05 659.88 491.04 659.94 491 660 491.03 660.02 487.93 682.5"/><polygon class="cls-1" points="453 656 487.93 682.5 487.86 682.98 484 711 453 656"/><polygon class="cls-4" points="491.05 659.88 453 656 461.81 640.45 466.2 632.71 491.05 659.88"/><polygon class="cls-4" points="463 585 441 585 472 571 463 585"/><polygon class="cls-2" points="484 711 448.65 778.48 448.12 778.91 452 752 467.23 732.48 484 711"/><polygon class="cls-4" points="472 571 441 585 471 560 472 571"/><polygon class="cls-1" points="448 779 428.49 752.02 428.5 752 452 752 448.12 778.91 448 779"/><polygon class="cls-1" points="453 656 443 675 442.99 674.91 443 674.9 442.99 674.89 437 619 461.81 640.45 453 656"/><polygon class="cls-2" points="448.65 778.48 448.38 779 448.11 779 448.12 778.91 448.65 778.48"/><polygon class="cls-2" points="448.38 779 448 779.73 448.11 779 448.38 779"/><polygon class="cls-2" points="448.12 778.91 448.11 779 448 779 448.12 778.91"/><polygon class="cls-2" points="448 779.73 459 792 441.1 809.9 441.05 809.79 448 779 448.11 779 448 779.73"/><polygon class="cls-1" points="448 779 441.05 809.79 428.5 783.5 422.6 768.75 448 779"/><polygon class="cls-2" points="433 691 442.93 675.01 444 676 484 711 433 691"/><polygon class="cls-1" points="437 704 484 711 467.23 732.48 437 704"/><polygon class="cls-1" points="484 711 444 676 442.93 675.01 442.99 674.91 443 675 453 656 484 711"/><polygon class="cls-2" points="461.81 640.45 437 619 437.08 618.33 463 585 461.81 640.45"/><polygon class="cls-2" points="437 704 467.23 732.48 452 752 437 704"/><polygon class="cls-2" points="437.08 618.33 441 585 463 585 437.08 618.33"/><polygon class="cls-2" points="414 597 441 585 437.08 618.33 436.75 618.76 414 597"/><polygon class="cls-4" points="414 648 436.58 618.96 436.59 618.96 436.75 618.76 437 619 442.99 674.89 442.64 674.73 414 648"/><polygon class="cls-1" points="428.49 752.02 448 779 422.6 768.75 428.49 752.02"/><polygon class="cls-2" points="436.58 618.96 420 620 414 597 436.75 618.76 436.59 618.96 436.58 618.96"/><polygon class="cls-3" points="471 560 420 550 453 542 453.22 541.85 454 543 471 560"/><polygon class="cls-3" points="441 585 420 550 471 560 441 585"/><polygon class="cls-3" points="441 585 409 582 420 550 441 585"/><polygon class="cls-2" points="452 752 413.76 713.76 413.77 713.76 437 704 452 752"/><polygon class="cls-1" points="414 597 409 582 441 585 414 597"/><polygon class="cls-4" points="404.72 618.78 414 597 420 620 404.98 618.98 404.72 618.78"/><polygon class="cls-5" points="415 690 399 654 433 691 484 711 437 704 415 690"/><polygon class="cls-2" points="414 648 409.45 637.08 410.81 634.88 436.58 618.96 414 648"/><polygon class="cls-2" points="410.81 634.88 420 620 436.58 618.96 410.81 634.88"/><polygon class="cls-2" points="433 691 399 654 442.64 674.73 442.93 675.01 433 691"/><polygon class="cls-2" points="413.76 713.76 396.08 696.08 396.06 696.01 437 704 413.77 713.76 413.76 713.76"/><polygon class="cls-2" points="420 620 410.81 634.88 409 636 404.68 619.07 405 619 404.98 618.98 420 620"/><polygon class="cls-2" points="452 752 401 714 413.76 713.76 452 752"/><polygon class="cls-2" points="442.64 674.73 399 654 414 648 442.64 674.73"/><polygon class="cls-2" points="414 648 399 654 409.45 637.08 414 648"/><polygon class="cls-2" points="410.81 634.88 409.45 637.08 409 636 410.81 634.88"/><polygon class="cls-1" points="428.49 752.02 401 714 452 752 428.5 752 428.49 752.02"/><polygon class="cls-1" points="422.6 768.75 400.74 714.1 401 714 428.49 752.02 422.6 768.75"/><polygon class="cls-2" points="396.06 695.98 415 690 437 704 396.06 696.01 396.06 695.98"/><polygon class="cls-2" points="391 651 409 636 409.45 637.08 399 654 391 651"/><polygon class="cls-3" points="392 560 420 550 409 582 392 560"/><polygon class="cls-2" points="393.77 675.94 399 654 415 690 393.77 675.94"/><polygon class="cls-4" points="401.25 529.69 441 524 453.22 541.85 453 542 401.25 529.69"/><polygon class="cls-3" points="401.25 529.69 453 542 420 550 401.25 529.69"/><polygon class="cls-2" points="409 636 391 651 404.59 619.09 404.68 619.07 409 636"/><polygon class="cls-1" points="396.08 696.08 413.76 713.76 401 714 400.74 714.1 400.5 713.5 396.08 696.08"/><polygon class="cls-4" points="375 595 404.72 618.78 404.65 618.96 404.59 619.09 392 622 375 595"/><polygon class="cls-1" points="404.59 619.09 391 651 392 622 404.59 619.09"/><polygon class="cls-2" points="393.77 675.94 415 690 396.06 695.98 396.01 695.81 395.95 695.58 393.77 675.94"/><polygon class="cls-2" points="393.77 675.94 391 651 399 654 393.77 675.94"/><polygon class="cls-1" points="391 651 393.77 675.94 395.95 695.58 383.5 646.5 391 651"/><polygon class="cls-4" points="441 524 372 497.5 387 469 441 524"/><polygon class="cls-4" points="383.5 646.5 395.95 695.58 395.98 695.79 375 682 383 647 383.15 646.58 383.5 646.5"/><polygon class="cls-1" points="383.15 646.58 392 622 391 651 383.5 646.5 383.15 646.58"/><polygon class="cls-2" points="382.55 646.71 383.15 646.58 383 647 382.55 646.71"/><polygon class="cls-1" points="404.72 618.78 375 595 414 597 404.72 618.78"/><polygon class="cls-4" points="362 660 383 647 375 682 362 660"/><polygon class="cls-1" points="375 595 409 582 414 597 375 595"/><polygon class="cls-3" points="372 497.5 441 524 401.25 529.69 372 498 371.79 497.62 372 497.5"/><polygon class="cls-3" points="371.79 497.62 348 455 387 469 372 497.5 371.79 497.62"/><polygon class="cls-4" points="372 498 401.25 529.69 420 550 392 560 371.09 497.5 372 498"/><polygon class="cls-4" points="383 647 362 660 349.75 654 382.55 646.71 383 647"/><polygon class="cls-2" points="382.55 646.71 349.75 654 339.08 656.37 339 656 349 625 382.55 646.71"/><polygon class="cls-4" points="348 455 359 419 387 469 348 455"/><polygon class="cls-2" points="350.06 624.93 375 595 392 622 350.06 624.93"/><polygon class="cls-2" points="359 419 348 455 329 389 359 419"/><polygon class="cls-2" points="341 356 359 419 329 389 340.96 355.44 341 356"/><polygon class="cls-2" points="350 625 350.06 624.93 392 622 383.15 646.58 382.55 646.71 349 625 349.98 624.93 350 625"/><polygon class="cls-3" points="392 560 317.06 521.05 371.09 497.5 392 560"/><polygon class="cls-2" points="349 625 339 656 316 617 349 625"/><polygon class="cls-2" points="349 625 316 617 338.24 585.52 349.98 624.93 349 625"/><polygon class="cls-2" points="375 595 350.06 624.93 349.98 624.93 338.24 585.52 350 589 375 595"/><polygon class="cls-2" points="338 314 340.96 355.44 329 351 338 314"/><polygon class="cls-2" points="340.96 355.44 329 389 329 351 340.96 355.44"/><polygon class="cls-4" points="317.06 521.05 306 461.75 308 463 371.09 497.5 317.06 521.05"/><polygon class="cls-4" points="338.24 585.52 316 617 318.5 579.67 338.24 585.51 338.24 585.52"/><polygon class="cls-4" points="318.5 579.67 316 617 306 601 318.5 579.67"/><polygon class="cls-2" points="306 601 316 617 309 656 306 601"/><polygon class="cls-4" points="309 656 316 617 339 656 339.08 656.37 338.5 656.5 309.5 656.5 308.9 656.25 309 656"/><polygon class="cls-4" points="306 601 309 656 308.9 656.25 278.75 643.6 279 643 306 601"/><polygon class="cls-4" points="296 573 318.5 579.67 306 601 296 573"/><polygon class="cls-1" points="306 601 279 643 271 592 306 601"/><polygon class="cls-3" points="306 461.75 317.06 521.05 265 494 306 461.75"/><polygon class="cls-4" points="296 573 306 601 271 592 296 573"/><polygon class="cls-4" points="252.28 428.17 306 461.75 265 494 252.28 428.17"/><polygon class="cls-4" points="274.97 571.36 296 573 271 592 274.97 571.36"/><polygon class="cls-4" points="261 579 274.97 571.36 271 592 261 579"/><polygon class="cls-4" points="261 579 271 592 236 605 261 579"/><polygon class="cls-2" points="267 41 248 69 225.68 66.69 267 41"/><polygon class="cls-3" points="244.76 455.98 265 494 205 453 244.76 455.98"/><polygon class="cls-4" points="245 456 251.82 427.48 252 428 252.28 428.17 265 494 244.76 455.98 245 456"/><polygon class="cls-3" points="248 69 208 99 225.68 66.69 248 69"/><polygon class="cls-4" points="244.76 455.98 205 453 208 424 244.57 455.63 244.76 455.98"/><polygon class="cls-4" points="226.04 567.54 274.97 571.36 261 579 226 568 226.04 567.54"/><polygon class="cls-4" points="236 605 271 592 279 643 278.75 643.6 278.5 643.5 235.5 605.5 235.41 605.36 236 605"/><polygon class="cls-2" points="232 410 245 456 244.57 455.63 208 424 232 410"/><polygon class="cls-2" points="228 359 251.82 427.48 245 456 232 410 228 359"/><polygon class="cls-4" points="226 568 261 579 220 579 219.8 578.9 225.5 567.5 226.04 567.54 226 568"/><polygon class="cls-2" points="225.68 66.69 208 99 193 87 225.68 66.69"/><polygon class="cls-2" points="207 389 232 410 208 424 205.55 387.25 207 389"/><polygon class="cls-4" points="220 579 261 579 236 605 235.41 605.36 219.5 579.5 219.8 578.9 220 579"/><polygon class="cls-3" points="208 99 170 137 193 87 208 99"/><polygon class="cls-3" points="208 424 205 453 164 434 208 424"/><polygon class="cls-4" points="208 424 164 434 157 395 208 424"/><polygon class="cls-2" points="207 0 181 84 154 86 207 0"/><polygon class="cls-2" points="157 395 205.55 387.24 205.55 387.25 208 424 157 395"/><polygon class="cls-4" points="193 87 170 137 152.37 124.01 171.04 107 171.05 107 171.05 106.99 193 87"/><polygon class="cls-4" points="193 87 171.05 106.99 181 84 193 87"/><polygon class="cls-2" points="181 84 171.05 106.99 171.05 107 171.04 107 171 107 154 86 181 84"/><polygon class="cls-2" points="169 343 205.55 387.24 157 395 169 343"/><polygon class="cls-4" points="171 107 171.04 107 152.37 124.01 132 109 171 107"/><polygon class="cls-2" points="154 86 171 107 132 109 154 86"/><polygon class="cls-4" points="170 137 159 156 132 109 152.37 124.01 170 137"/><polygon class="cls-3" points="157 395 164 434 131 407 157 395"/><polygon class="cls-2" points="121 359 169 343 157 395 121 359"/><polygon class="cls-2" points="132 109 159 156 117 158 132 109"/><polygon class="cls-4" points="157 395 131 407 121 359 157 395"/><polygon class="cls-4" points="154 86 132 109 147 84 154 86"/><polygon class="cls-3" points="143 224 117 158 159 156 143.56 224.51 143 224.38 143 224"/><polygon class="cls-2" points="138 39 147 84 132 109 138 39"/><polygon class="cls-3" points="121 359 131 407 102 368 121 359"/><polygon class="cls-2" points="121 359 146 280 169 343 121 359"/><polygon class="cls-3" points="146 280 121 359 105.24 308.44 146 280"/><polygon class="cls-2" points="102 232 117 158 143 224 143 224.38 102 232"/><polygon class="cls-2" points="105.24 308.44 143 224.38 143.56 224.51 143 227 146 280 105.24 308.44"/><polygon class="cls-3" points="143 224.38 105.24 308.44 104.98 307.62 102 232 143 224.38"/><polygon class="cls-2" points="95 331 121 359 102 368 95 331"/><polygon class="cls-2" points="105.24 308.44 121 359 95 331 97 282 104.98 307.62 105.24 308.44"/><polygon class="cls-2" points="102 232 82 199 117 158 102 232"/><polygon class="cls-3" points="77.18 285.33 102 232 104.98 307.62 97 282 95 331 77.18 285.33"/><polygon class="cls-3" points="102 232 77.18 285.33 63 249 53.7 228.81 53.71 228.81 102 232"/><polygon class="cls-2" points="71 8 61 107 42 77 71 8"/><polygon class="cls-4" points="61 107 72 178 28 173 61 107"/><polygon class="cls-4" points="82 199 102 232 53.71 228.81 82 199"/><polygon class="cls-4" points="28 173 72 178 81.43 197.8 81 198 28 173"/><polygon class="cls-3" points="81 198 81.43 197.8 82 199 53.71 228.81 53.7 228.81 28 173 81 198"/><polygon class="cls-2" points="61 107 28 149 33 119 42 77 61 107"/><polygon class="cls-3" points="61 107 28 173 28 149 61 107"/><polygon class="cls-3" points="0 147 28 149 28 173 0 147"/><polygon class="cls-1" points="503.5 832.39 503.5 848.5 521.5 846.61 503.5 832.39"/><polygon class="cls-1" points="503.5 832 503.5 832.39 521.5 846.61 522.5 846.5 556.51 828.04 503.5 832"/><polygon class="cls-2" points="503.5 818 503.5 832 528 818 503.5 818"/><polygon class="cls-3" points="503.5 800 503.5 817 504 817 513 800 503.5 800"/><polygon class="cls-3" points="503.5 791 503.5 800 513 800 503.5 791"/><polygon class="cls-3" points="503.5 783 503.5 791 510 791 504 783 503.5 783"/><polygon class="cls-4" points="511 783 504.18 750.85 503.5 750 503.5 783 504 783 511 783"/><polygon class="cls-4" points="515.96 659.94 503.5 641.91 503.5 668 504 668 515.97 660.02 515.96 659.94"/><polygon class="cls-4" points="510.82 622.7 503.5 569.63 503.5 641.91 510.9 623.26 510.82 622.7"/><polygon class="cls-4" points="503.5 791 513 800 510 791 503.5 791"/><polygon class="cls-2" points="503.5 832 556.51 828.04 556.74 827.91 528 818 503.5 832"/><polygon class="cls-1" points="504 695 519 683 504 668 503.5 668 503.5 695 504 695"/><polygon class="cls-3" points="503.5 818 528 818 518 808 504 817 503.5 817 503.5 818"/><polygon class="cls-3" points="504 783 510 791 511 783 504 783"/><polygon class="cls-4" points="513 800 504 817 518 808 513 800"/><polygon class="cls-4" points="512.97 731.59 504 695 503.5 695 503.5 750 504.01 750.05 504 750 512.97 731.59"/><polygon class="cls-4" points="504.18 750.85 511 783 526 778 504.18 750.85"/><polygon class="cls-4" points="510.9 623.26 503.5 641.91 515.96 659.94 515.95 659.88 510.9 623.26"/><polygon class="cls-4" points="519.07 682.5 515.97 660.02 504 668 519 683 519.14 682.98 519.07 682.5"/><polygon class="cls-3" points="511 783 510 791 526 783 511 783"/><polygon class="cls-3" points="510 791 513 800 519 798 510 791"/><polygon class="cls-3" points="510 791 519 798 526 783 510 791"/><polygon class="cls-4" points="525.38 605.49 503.5 566.88 503.5 569.63 510.82 622.7 525.38 605.49"/><polygon class="cls-4" points="504.01 750.05 523.95 751.9 512.97 731.59 504 750 504.01 750.05"/><polygon class="cls-3" points="511 783 526 783 526 778 511 783"/><polygon class="cls-4" points="523 711 504 695 512.97 731.59 523 711"/><polygon class="cls-3" points="513 800 519 805 519 804.53 519 798 513 800"/><polygon class="cls-3" points="513 800 518 808 519 805 513 800"/><polygon class="cls-3" points="519 805 518 808 528 811 519 805"/><polygon class="cls-3" points="518 808 528 818 529 814 518 808"/><polygon class="cls-3" points="519 805 528 811 541 799 519 804.53 519 805"/><polygon class="cls-3" points="519 798 519 804.53 537 788 519 798"/><polygon class="cls-3" points="526 783 519 798 537 788 526 783"/><polygon points="519 804.53 541 799 537 788 519 804.53"/><polygon class="cls-2" points="554 656 515.95 659.88 515.96 659.94 516 660 515.97 660.02 519.07 682.5 554 656"/><polygon class="cls-1" points="504 695 523 711 519.14 682.98 519 683 504 695"/><polygon class="cls-1" points="523 711 512.97 731.59 523.95 751.9 524 751.91 523 711"/><polygon class="cls-1" points="523 711 554 656 519.07 682.5 519.14 682.98 523 711"/><polygon class="cls-2" points="558.35 778.48 523 711 524 751.91 524.22 751.93 525 752 558.35 778.48"/><polygon class="cls-4" points="504.18 750.85 526 778 524.21 752 524.22 751.93 524 751.91 524 752 523.95 751.9 504.01 750.05 504.18 750.85"/><polygon class="cls-2" points="524.21 752 526 778 543 779 524.21 752"/><polygon class="cls-2" points="524.21 752 543 779 558.62 779 558.35 778.48 525 752 524.22 751.93 524.21 752"/><polygon class="cls-3" points="526 778 526 783 537 784 526 778"/><polygon class="cls-3" points="526 778 537 784 543 779 526 778"/><polygon class="cls-3" points="526 783 537 788 537 784 526 783"/><polygon class="cls-3" points="528 811 518 808 529 814 528 811"/><polygon class="cls-3" points="528 811 529 814 539.72 809.88 541 809 528 811"/><polygon class="cls-3" points="528 811 541 809 541 799 528 811"/><polygon class="cls-2" points="528 818 556.74 827.91 556.87 827.84 541.25 809.3 539.72 809.88 528 818"/><polygon class="cls-3" points="529 814 528 818 539.72 809.88 529 814"/><polygon class="cls-4" points="503.5 566.23 544 585 535 571 503.5 566.08 503.5 566.23"/><polygon class="cls-4" points="503.5 566.08 535 571 536 560 503.5 565.5 503.5 566.08"/><polygon class="cls-2" points="539.77 732.48 523 711 558.35 778.48 558.88 778.91 555 752 539.77 732.48"/><polygon class="cls-2" points="540.8 632.71 510.82 622.7 510.9 623.26 515.95 659.88 540.8 632.71"/><polygon class="cls-4" points="540.8 632.71 525.38 605.49 510.82 622.7 540.8 632.71"/><polygon class="cls-1" points="570 704 523 711 539.77 732.48 570 704"/><polygon class="cls-3" points="537 784 537 788 547.55 792.45 547.85 792.15 537 784"/><polygon class="cls-3" points="537 788 541 799 547.55 792.45 537 788"/><polygon class="cls-3" points="537 784 547.85 792.15 548 792 545.67 785.94 543 779 537 784"/><polygon class="cls-2" points="539.72 809.88 541.25 809.3 541 809 539.72 809.88"/><polygon class="cls-2" points="539.77 732.48 555 752 570 704 539.77 732.48"/><polygon class="cls-2" points="541 799 541 809 541.01 809 565.85 809.99 565.88 809.95 541 799"/><path class="cls-2" d="M541.25,809.25l.25.3.41-.16a3,3,0,0,0-.65-.14Z" transform="translate(-0.25 -0.25)"/><path class="cls-2" d="M566.1,810.24l-24.84-1a3,3,0,0,1,.65.14l-.41.16,15.62,18.54.63-.34,7.3-15.3Z" transform="translate(-0.25 -0.25)"/><polygon class="cls-4" points="545.19 640.45 544 585 503.5 566.23 503.5 566.88 525.38 605.49 540.8 632.71 545.19 640.45"/><polygon class="cls-2" points="543 779 545.67 785.94 548 792 559 779.73 558.62 779 543 779"/><polygon class="cls-5" points="523 711 570 704 592 690 608 654 574 691 523 711"/><polygon class="cls-2" points="544 585 545.19 640.45 570 619 569.92 618.33 544 585"/><polygon class="cls-2" points="523 711 574 691 564.07 675.01 563 676 523 711"/><path class="cls-2" d="M548.1,792.4l-.3.3.42.17a.16.16,0,0,0,.15-.27Z" transform="translate(-0.25 -0.25)"/><path class="cls-2" d="M548.25,792.25l-.15.15.27.2a.16.16,0,0,1-.15.27l-.42-.17-6.55,6.55,24.88,11,0-.05Z" transform="translate(-0.25 -0.25)"/><polygon class="cls-4" points="545.19 640.45 540.8 632.71 515.95 659.88 554 656 545.19 640.45"/><polygon class="cls-2" points="570 704 555 752 593.24 713.76 570 704"/><polygon class="cls-1" points="555 752 558.88 778.91 559 779 578.51 752.02 578.5 752 555 752"/><polygon class="cls-1" points="555 752 578.5 752 578.51 752.02 606 714 555 752"/><polygon class="cls-2" points="555 752 606 714 593.24 713.76 555 752"/><polygon class="cls-2" points="558.35 778.48 558.62 779 558.89 779 558.88 778.91 558.35 778.48"/><polygon class="cls-2" points="558.62 779 559 779.73 558.89 779 558.62 779"/><polygon class="cls-2" points="558.88 778.91 558.89 779 559 779 558.88 778.91"/><polygon class="cls-2" points="559 779.73 548 792 565.9 809.9 565.95 809.79 559 779 558.89 779 559 779.73"/><polygon class="cls-1" points="578.51 752.02 559 779 584.4 768.75 578.51 752.02"/><polygon class="cls-1" points="559 779 565.95 809.79 578.5 783.5 584.4 768.75 559 779"/><polygon class="cls-1" points="554 656 523 711 563 676 564.07 675.01 564.01 674.91 564 675 554 656"/><polygon class="cls-2" points="564.36 674.73 564.07 675.01 574 691 608 654 564.36 674.73"/><polygon class="cls-4" points="566 585 535 571 544 585 566 585"/><polygon class="cls-2" points="564.36 674.73 608 654 593 648 564.36 674.73"/><polygon class="cls-2" points="566 585 544 585 569.92 618.33 566 585"/><polygon class="cls-4" points="566 585 536 560 535 571 566 585"/><polygon class="cls-1" points="570 619 545.19 640.45 554 656 564 675 564.01 674.91 564 674.9 564.01 674.89 570 619"/><polygon class="cls-2" points="570 704 593.24 713.76 610.92 696.08 610.94 696.01 570 704"/><polygon class="cls-2" points="570 704 610.94 696.01 610.94 695.98 592 690 570 704"/><polygon class="cls-4" points="570 619 564.01 674.89 564.36 674.73 593 648 570.42 618.96 570.41 618.96 570.25 618.76 570 619"/><polygon class="cls-2" points="570.42 618.96 593 648 597.55 637.08 596.19 634.88 570.42 618.96"/><polygon class="cls-4" points="566 524 635 497.5 620 469 566 524"/><polygon class="cls-2" points="587 620 570.42 618.96 596.19 634.88 587 620"/><polygon class="cls-1" points="578.51 752.02 584.4 768.75 606.26 714.1 606 714 578.51 752.02"/><polygon class="cls-2" points="593 597 566 585 569.92 618.33 570.25 618.76 593 597"/><polygon class="cls-3" points="553 543 536 560 587 550 554 542 553.78 541.85 553 543"/><polygon class="cls-2" points="570.42 618.96 587 620 593 597 570.25 618.76 570.41 618.96 570.42 618.96"/><polygon class="cls-3" points="587 550 536 560 566 585 587 550"/><polygon class="cls-2" points="587 620 596.19 634.88 598 636 602.33 619.08 602 619 602.02 618.98 587 620"/><polygon class="cls-4" points="593 597 587 620 602.02 618.98 602.28 618.78 593 597"/><polygon class="cls-3" points="566 585 598 582 587 550 566 585"/><polygon class="cls-1" points="566 585 593 597 598 582 566 585"/><polygon class="cls-2" points="608 654 592 690 613.23 675.94 608 654"/><polygon class="cls-2" points="592 690 610.94 695.98 610.99 695.81 611.05 695.58 613.23 675.94 592 690"/><polygon class="cls-2" points="597.55 637.08 593 648 608 654 597.55 637.08"/><polygon class="cls-3" points="615 560 587 550 598 582 615 560"/><polygon class="cls-2" points="596.19 634.88 597.55 637.08 598 636 596.19 634.88"/><polygon class="cls-1" points="632 595 593 597 602.28 618.78 632 595"/><polygon class="cls-2" points="598 636 597.55 637.08 608 654 616 651 598 636"/><polygon class="cls-2" points="602.33 619.08 598 636 616 651 602.41 619.09 602.33 619.08"/><polygon class="cls-2" points="602 619 602.33 619.08 602.36 618.97 602.36 618.96 602.35 618.96 602.02 618.98 602 619"/><polygon class="cls-4" points="602.28 618.78 602.35 618.96 602.36 618.96 602.36 618.97 602.41 619.09 615 622 632 595 602.28 618.78"/><polygon class="cls-1" points="615 622 602.41 619.09 616 651 615 622"/><polygon class="cls-4" points="605.75 529.69 566 524 553.78 541.85 554 542 605.75 529.69"/><polygon class="cls-3" points="605.75 529.69 554 542 587 550 605.75 529.69"/><polygon class="cls-1" points="606 714 606.26 714.1 606.5 713.5 610.92 696.08 593.24 713.76 606 714"/><polygon class="cls-1" points="593 597 632 595 598 582 593 597"/><polygon class="cls-2" points="608 654 613.23 675.94 616 651 608 654"/><polygon class="cls-1" points="613.23 675.94 611.05 695.58 623.5 646.5 616 651 613.23 675.94"/><polygon class="cls-2" points="632 595 615 622 656.94 624.93 632 595"/><polygon class="cls-4" points="623.5 646.5 611.05 695.58 611.02 695.79 632 682 624 647 623.85 646.58 623.5 646.5"/><polygon class="cls-1" points="623.85 646.58 615 622 616 651 623.5 646.5 623.85 646.58"/><polygon class="cls-2" points="624.45 646.71 623.85 646.58 624 647 624.45 646.71"/><polygon class="cls-4" points="624 647 632 682 645 660 624 647"/><polygon class="cls-4" points="624 647 645 660 657.25 654 624.45 646.71 624 647"/><polygon class="cls-2" points="624.45 646.71 657.25 654 667.92 656.37 668 656 658 625 624.45 646.71"/><polygon class="cls-2" points="632 595 656.94 624.93 657.02 624.93 668.76 585.52 657 589 632 595"/><polygon class="cls-3" points="635 497.5 566 524 605.75 529.69 635 498 635.21 497.62 635 497.5"/><polygon class="cls-3" points="635 497.5 635.21 497.62 659 455 620 469 635 497.5"/><polygon class="cls-4" points="635 498 605.75 529.69 587 550 615 560 635.92 497.5 635 498"/><polygon class="cls-4" points="648 419 620 469 659 455 648 419"/><polygon class="cls-2" points="657 625 656.94 624.93 615 622 623.85 646.58 624.45 646.71 658 625 657.02 624.93 657 625"/><polygon class="cls-2" points="658 625 691 617 668.76 585.52 657.02 624.93 658 625"/><polygon class="cls-2" points="658 625 668 656 691 617 658 625"/><polygon class="cls-3" points="615 560 689.95 521.05 635.92 497.5 615 560"/><polygon class="cls-2" points="666 356 648 419 678 389 666.04 355.44 666 356"/><polygon class="cls-2" points="669 314 666.04 355.44 678 351 669 314"/><polygon class="cls-4" points="668.76 585.51 668.76 585.52 691 617 688.51 579.66 668.76 585.51"/><polygon class="cls-4" points="635.92 497.5 689.95 521.05 701 461.75 699 463 635.92 497.5"/><polygon class="cls-2" points="648 419 659 455 678 389 648 419"/><polygon class="cls-2" points="666.04 355.44 678 389 678 351 666.04 355.44"/><polygon class="cls-4" points="688.51 579.66 691 617 701 601 688.51 579.66"/><polygon class="cls-4" points="688.51 579.66 701 601 711 573 688.51 579.66"/><polygon class="cls-2" points="701 601 691 617 698 656 701 601"/><polygon class="cls-4" points="698 656 691 617 668 656 667.92 656.37 668.5 656.5 697.5 656.5 698.1 656.25 698 656"/><polygon class="cls-4" points="701 601 698 656 698.1 656.25 728.25 643.6 728 643 701 601"/><polygon class="cls-4" points="711 573 701 601 736 592 711 573"/><polygon class="cls-1" points="701 601 728 643 736 592 701 601"/><polygon class="cls-4" points="701 461.75 742 494 754.72 428.17 701 461.75"/><polygon class="cls-3" points="701 461.75 689.95 521.05 742 494 701 461.75"/><polygon class="cls-4" points="711 573 736 592 732.04 571.36 711 573"/><polygon class="cls-4" points="732.04 571.36 736 592 746 579 732.04 571.36"/><polygon class="cls-4" points="732.04 571.36 746 579 781 568 780.96 567.54 732.04 571.36"/><polygon class="cls-4" points="746 579 736 592 771 605 746 579"/><polygon class="cls-2" points="740 41 759 69 781.33 66.69 740 41"/><polygon class="cls-3" points="762.24 455.98 742 494 802 453 762.24 455.98"/><polygon class="cls-3" points="759 69 799 99 781.33 66.69 759 69"/><polygon class="cls-2" points="762.43 455.63 799 424 775 410 762 456 762.43 455.63"/><polygon class="cls-4" points="762 456 755.18 427.48 755 428 754.72 428.17 742 494 762.24 455.98 762 456"/><polygon class="cls-4" points="762.24 455.98 802 453 799 424 762.43 455.63 762.24 455.98"/><polygon class="cls-4" points="771 605 736 592 728 643 728.25 643.6 728.5 643.5 771.5 605.5 771.59 605.36 771 605"/><polygon class="cls-2" points="779 359 755.18 427.48 762 456 775 410 779 359"/><polygon class="cls-2" points="775 410 799 424 801.45 387.25 800 389 775 410"/><polygon class="cls-4" points="781 568 746 579 787 579 787.2 578.9 781.5 567.5 780.96 567.54 781 568"/><polygon class="cls-4" points="787 579 746 579 771 605 771.59 605.36 787.5 579.5 787.2 578.9 787 579"/><polygon class="cls-2" points="801.45 387.25 799 424 850 395 801.45 387.24 801.45 387.25"/><polygon class="cls-3" points="799 424 802 453 843 434 799 424"/><polygon class="cls-4" points="799 424 843 434 850 395 799 424"/><polygon class="cls-2" points="801.45 387.24 850 395 838 343 801.45 387.24"/><polygon class="cls-2" points="814 87 781.33 66.69 799 99 814 87"/><polygon class="cls-4" points="814 87 835.96 107 826 84 814 87"/><polygon class="cls-2" points="853 86 800 0 826 84 853 86"/><polygon class="cls-2" points="826 84 835.96 107 836 107 853 86 826 84"/><polygon class="cls-3" points="799 99 837 137 814 87 799 99"/><polygon class="cls-4" points="814 87 837 137 854.63 124.01 835.96 107 814 87"/><polygon class="cls-2" points="838 343 850 395 886 359 838 343"/><polygon class="cls-3" points="850 395 843 434 876 407 850 395"/><polygon class="cls-4" points="850 395 876 407 886 359 850 395"/><polygon class="cls-4" points="875 109 860 84 853 86 875 109"/><polygon class="cls-2" points="836 107 875 109 853 86 836 107"/><polygon class="cls-2" points="861 280 838 343 886 359 861 280"/><polygon class="cls-4" points="854.63 124.01 875 109 836 107 835.96 107 854.63 124.01"/><polygon class="cls-4" points="848 156 875 109 854.63 124.01 837 137 848 156"/><polygon class="cls-2" points="901.76 308.44 864 224.38 863.44 224.51 864 227 861 280 901.76 308.44"/><polygon class="cls-3" points="901.76 308.44 861 280 886 359 901.76 308.44"/><polygon class="cls-3" points="890 158 848 156 863.44 224.51 864 224.38 864 224 890 158"/><polygon class="cls-2" points="875 109 869 39 860 84 875 109"/><polygon class="cls-3" points="886 359 876 407 905 368 886 359"/><polygon class="cls-3" points="905 232 864 224.38 901.76 308.44 902.02 307.62 905 232"/><polygon class="cls-2" points="864 224.38 905 232 890 158 864 224 864 224.38"/><polygon class="cls-2" points="912 331 886 359 905 368 912 331"/><polygon class="cls-2" points="848 156 890 158 875 109 848 156"/><polygon class="cls-2" points="890 158 905 232 925 199 890 158"/><polygon class="cls-2" points="901.76 308.44 886 359 912 331 910 282 902.02 307.62 901.76 308.44"/><polygon class="cls-3" points="902.02 307.62 910 282 912 331 929.82 285.33 905 232 902.02 307.62"/><polygon class="cls-4" points="925 199 905 232 953.3 228.81 925 199"/><polygon class="cls-3" points="905 232 929.82 285.33 944 249 953.3 228.81 905 232"/><polygon class="cls-3" points="926 198 925.57 197.8 925 199 953.3 228.81 979 173 926 198"/><polygon class="cls-4" points="935 178 925.57 197.8 926 198 979 173 935 178"/><polygon class="cls-4" points="946 107 935 178 979 173 946 107"/><polygon class="cls-2" points="936 8 946 107 965 77 936 8"/><polygon class="cls-3" points="946 107 979 173 979 149 946 107"/><polygon class="cls-2" points="965 77 946 107 979 149 974 119 965 77"/><polygon class="cls-3" points="979 149 979 173 1007 147 979 149"/></g></g></svg>