<svg id="deer" xmlns="http://www.w3.org/2000/svg" viewBox="0 0 1920 1080"><defs><style>.cls-1{fill:#222;}</style></defs><title>Монтажная область 1</title><polygon class="cls-1" points="1709.79 367.86 1709.56 367.42 1536.4 456.03 1479.81 456.03 1607.3 365.86 1607.36 365.72 1686.06 169.47 1567.53 343.17 1351.89 488.24 1449.36 390.77 1477.02 195.16 1406.47 381.24 1252.56 521.16 1252.57 521.17 1099.2 569.71 1155.34 482.24 1155.34 482.1 1156.42 312.56 1112.44 480.29 1016.72 592.14 960 592.45 903.28 592.14 807.56 480.29 763.58 312.56 764.66 482.1 764.66 482.24 820.8 569.71 667.43 521.17 667.44 521.16 513.53 381.24 442.99 195.16 470.64 390.77 568.11 488.24 352.47 343.17 233.94 169.47 312.64 365.72 312.7 365.86 440.19 456.03 383.6 456.03 210.44 367.42 210.21 367.86 209.89 368.25 358.06 491.77 358.19 491.88 500.96 499.02 508.47 503.1 559.34 539.08 599.11 552.42 618.61 563.03 820.61 655.03 942.11 910.53 946.89 910.53 973.11 910.53 977.89 910.53 1099.39 655.03 1301.39 563.03 1320.89 552.42 1360.66 539.08 1411.53 503.1 1419.04 499.02 1561.82 491.88 1561.94 491.77 1710.11 368.25 1709.79 367.86"/></svg>