<?xml version="1.0" encoding="iso-8859-1"?>
<!-- Generator: Adobe Illustrator 18.0.0, SVG Export Plug-In . SVG Version: 6.00 Build 0)  -->
<!DOCTYPE svg PUBLIC "-//W3C//DTD SVG 1.1//EN" "http://www.w3.org/Graphics/SVG/1.1/DTD/svg11.dtd">
<svg version="1.1" id="Capa_1" xmlns="http://www.w3.org/2000/svg" xmlns:xlink="http://www.w3.org/1999/xlink" x="0px" y="0px"
	 viewBox="0 0 296.083 296.083" style="enable-background:new 0 0 296.083 296.083;" xml:space="preserve">
<g>
	<ellipse cx="100.853" cy="141.971" rx="15.18" ry="24.445"/>
	<ellipse cx="195.23" cy="141.971" rx="15.18" ry="24.445"/>
	<path d="M148.041,227.745c21.975,0,41.317-11.241,52.609-28.283c2.711-4.091-0.211-9.558-5.119-9.558h-94.98
		c-4.908,0-7.83,5.467-5.119,9.558C106.724,216.504,126.066,227.745,148.041,227.745z"/>
	<path d="M238.365,73.395c-5.814,2.577-12.561,4.806-20.462,6.738c-2.613,0.639-5.34,1.235-8.155,1.796
		c26.025,19.06,42.96,49.83,42.96,84.487c0,57.714-46.953,104.667-104.667,104.667c-57.714,0-104.667-46.953-104.667-104.667
		c0-34.326,16.611-64.845,42.216-83.943c-3.829-0.711-7.503-1.49-10.981-2.34c-6.798-1.662-12.743-3.544-17.978-5.677
		c-23.626,23.486-38.256,56.013-38.256,91.959c0,71.613,58.054,129.667,129.667,129.667s129.667-58.054,129.667-129.667
		C277.708,129.923,262.627,96.958,238.365,73.395z"/>
	<path d="M78.883,62.647c18.146,4.436,42.073,6.878,67.373,6.878s49.226-2.442,67.372-6.878c8.956-2.189,36.21-8.851,36.21-27.885
		s-27.254-25.695-36.21-27.885C195.482,2.442,171.556,0,146.256,0S97.03,2.442,78.883,6.878c-8.956,2.189-36.21,8.851-36.21,27.885
		S69.927,60.458,78.883,62.647z M146.256,25c36.471,0,61.754,5.287,73.222,9.763c-11.468,4.476-36.751,9.763-73.222,9.763
		s-61.754-5.287-73.223-9.763C84.502,30.287,109.785,25,146.256,25z"/>
</g>
<g>
</g>
<g>
</g>
<g>
</g>
<g>
</g>
<g>
</g>
<g>
</g>
<g>
</g>
<g>
</g>
<g>
</g>
<g>
</g>
<g>
</g>
<g>
</g>
<g>
</g>
<g>
</g>
<g>
</g>
</svg>
