<?xml version="1.0" encoding="iso-8859-1"?>
<!-- Generator: Adobe Illustrator 18.0.0, SVG Export Plug-In . SVG Version: 6.00 Build 0)  -->
<!DOCTYPE svg PUBLIC "-//W3C//DTD SVG 1.1//EN" "http://www.w3.org/Graphics/SVG/1.1/DTD/svg11.dtd">
<svg version="1.1" id="Capa_1" xmlns="http://www.w3.org/2000/svg" xmlns:xlink="http://www.w3.org/1999/xlink" x="0px" y="0px"
	 viewBox="0 0 312.609 312.609" style="enable-background:new 0 0 312.609 312.609;" xml:space="preserve">
<g>
	<path d="M182.389,184.18H70.414c-2.843,0-5.147,2.304-5.147,5.147v6.706c0,2.843,2.304,5.147,5.147,5.147h16.911l4.792,8.434
		c1.579,2.779,5.585,2.776,7.16-0.005l4.773-8.429h47.198l4.792,8.434c1.579,2.779,5.585,2.776,7.16-0.005l4.773-8.429h14.414
		c2.843,0,5.147-2.304,5.147-5.147v-6.706C187.536,186.484,185.232,184.18,182.389,184.18z"/>
	<path d="M311.239,116.811l-16.445-23.01c-2.905-4.065-8.947-4.065-11.853,0l-16.445,23.01c-3.445,4.821,0.001,11.52,5.926,11.52
		h3.945v96.189c0,16.71-13.595,30.305-30.306,30.305c-8.12,0-16.029-3.335-21.698-9.149l-4.626-4.745
		c19.758-22.213,31.768-51.471,31.768-83.538c0-28.597-9.552-54.96-25.631-76.086l6.707-33.854
		c2.27-11.459-8.818-21.02-19.818-17.089l-34.995,12.507c-15.852-7.212-33.464-11.232-52.015-11.232
		c-18.551,0-36.163,4.02-52.015,11.232L38.742,30.364c-11.001-3.932-22.089,5.629-19.818,17.089l6.707,33.854
		C9.552,102.432,0,128.795,0,157.392c0,69.451,56.301,125.753,125.753,125.753c28.377,0,54.557-9.403,75.6-25.259l5.111,5.242
		c10.347,10.61,24.779,16.696,39.599,16.696c30.496,0,55.306-24.81,55.306-55.305v-96.189h3.944
		C311.238,128.331,314.684,121.632,311.239,116.811z M25,157.392C25,101.837,70.197,56.64,125.753,56.64
		c55.555,0,100.753,45.197,100.753,100.753s-45.197,100.753-100.753,100.753C70.197,258.145,25,212.947,25,157.392z"/>
	<path d="M79.989,157.392c8.13,0,14.721-10.614,14.721-23.707c0-1.782-0.136-3.51-0.368-5.179l-25.615-10.08
		c-2.157,4.124-3.46,9.445-3.46,15.259C65.267,146.778,71.858,157.392,79.989,157.392z"/>
	<path d="M171.516,157.392c8.13,0,14.721-10.614,14.721-23.707c0-5.814-1.303-11.135-3.46-15.259l-25.615,10.08
		c-0.232,1.669-0.368,3.397-0.368,5.179C156.795,146.778,163.386,157.392,171.516,157.392z"/>
</g>
<g>
</g>
<g>
</g>
<g>
</g>
<g>
</g>
<g>
</g>
<g>
</g>
<g>
</g>
<g>
</g>
<g>
</g>
<g>
</g>
<g>
</g>
<g>
</g>
<g>
</g>
<g>
</g>
<g>
</g>
</svg>
