<?xml version="1.0" standalone="no"?>
<!DOCTYPE svg PUBLIC "-//W3C//DTD SVG 20010904//EN"
 "http://www.w3.org/TR/2001/REC-SVG-20010904/DTD/svg10.dtd">
<svg version="1.0" xmlns="http://www.w3.org/2000/svg"
 width="991.000000pt" height="1280.000000pt" viewBox="0 0 991.000000 1280.000000"
 preserveAspectRatio="xMidYMid meet">
<metadata>
Created by potrace 1.15, written by Peter Selinger 2001-2017
</metadata>
<g transform="translate(0.000000,1280.000000) scale(0.100000,-0.100000)"
fill="#000000" stroke="none">
<path d="M3190 12780 c-6 -11 -13 -48 -16 -83 -5 -57 -1 -75 60 -248 35 -103
124 -326 196 -495 73 -170 164 -399 204 -509 68 -187 77 -207 154 -316 90
-128 132 -170 482 -473 118 -102 222 -186 231 -186 8 0 42 -24 75 -53 32 -29
91 -74 129 -98 39 -25 118 -85 178 -132 59 -48 116 -87 126 -87 10 0 83 -28
162 -63 79 -35 171 -69 204 -76 33 -7 69 -21 80 -31 11 -9 96 -47 189 -84 147
-58 178 -75 231 -121 44 -39 66 -67 76 -97 7 -23 23 -53 35 -67 31 -38 36 -78
11 -96 -19 -13 -22 -12 -43 19 -31 45 -96 91 -228 161 -90 48 -129 62 -220 81
-61 13 -147 24 -191 24 -44 1 -101 5 -127 9 -31 5 -81 2 -145 -8 l-97 -16 -8
-35 c-6 -29 5 -67 68 -233 47 -123 97 -234 132 -294 54 -91 62 -100 125 -135
l67 -38 153 -7 c128 -5 162 -3 202 11 49 16 205 23 205 9 0 -5 -11 -26 -25
-48 -19 -32 -24 -54 -25 -106 0 -70 -17 -177 -31 -195 -5 -6 -20 -44 -33 -85
-56 -170 -105 -253 -274 -466 -94 -118 -176 -231 -197 -272 l-35 -71 -46 0
c-25 0 -107 18 -182 40 -197 56 -254 63 -502 58 -191 -4 -220 -7 -265 -26 -27
-12 -79 -28 -115 -37 -36 -9 -160 -58 -275 -110 -203 -91 -214 -94 -335 -111
l-125 -17 -200 31 c-110 17 -234 34 -275 38 -41 3 -101 15 -132 25 -32 11 -71
19 -88 19 -17 0 -58 11 -92 25 -52 21 -78 25 -165 25 -57 0 -136 6 -176 14
-44 9 -170 16 -326 20 -243 5 -262 4 -450 -24 -287 -43 -290 -44 -591 -239
-107 -69 -306 -195 -441 -281 -218 -138 -252 -163 -307 -227 -57 -67 -66 -84
-112 -215 -49 -141 -50 -145 -62 -329 -13 -204 -1 -495 28 -664 8 -49 35 -223
59 -385 24 -162 53 -322 65 -355 22 -62 81 -330 100 -449 6 -38 20 -105 30
-150 11 -44 31 -184 44 -311 45 -419 48 -475 35 -629 -10 -123 -17 -155 -51
-246 -22 -58 -45 -139 -53 -180 -12 -69 -12 -77 4 -95 10 -11 41 -73 69 -138
80 -185 86 -229 86 -692 l0 -390 -38 -115 c-33 -103 -39 -135 -52 -305 -8
-104 -14 -260 -12 -345 3 -153 3 -156 32 -195 28 -39 31 -40 85 -40 l56 0 10
-70 c9 -63 13 -71 40 -84 43 -21 232 -36 259 -21 16 8 39 8 86 1 112 -18 124
4 99 190 -8 57 -19 93 -33 114 -12 16 -30 57 -40 90 -10 33 -40 98 -67 144
-100 171 -137 405 -105 684 9 83 26 278 36 432 27 373 67 783 86 872 12 55 34
103 96 210 109 187 327 644 396 828 31 83 72 214 91 293 l36 142 70 -50 c82
-60 93 -85 94 -218 1 -67 -6 -107 -35 -210 -20 -70 -45 -144 -55 -164 -11 -21
-19 -49 -19 -63 0 -38 -192 -366 -266 -455 -34 -41 -90 -102 -123 -135 l-61
-59 0 -88 0 -87 65 -78 c53 -63 94 -134 212 -363 l145 -285 84 -279 c53 -177
84 -297 84 -326 0 -26 7 -69 15 -96 11 -38 15 -108 15 -311 0 -250 1 -265 22
-310 13 -27 23 -49 24 -51 0 -1 32 -8 70 -15 69 -12 69 -12 72 -47 2 -19 12
-44 22 -55 10 -12 20 -41 22 -71 7 -73 42 -116 124 -148 77 -31 177 -36 205
-10 16 14 20 14 39 1 19 -14 27 -14 66 0 l44 15 0 103 c0 139 -12 191 -75 315
-29 58 -58 130 -64 160 -6 30 -32 129 -57 219 -37 135 -54 177 -93 240 -40 63
-53 98 -78 202 -21 83 -46 155 -75 215 -25 49 -58 127 -73 174 -15 47 -43 119
-62 160 -19 41 -38 93 -43 115 -59 270 -62 291 -55 362 10 108 59 201 182 343
55 63 151 160 214 215 228 201 508 478 549 544 21 35 53 78 70 96 l32 33 49
-19 c33 -13 75 -19 127 -19 92 0 242 -16 253 -27 5 -5 33 -100 64 -213 64
-234 125 -546 125 -638 0 -134 49 -493 85 -623 19 -70 35 -151 35 -180 1 -30
7 -65 15 -79 10 -18 14 -60 15 -148 0 -68 7 -182 15 -255 8 -73 21 -243 30
-380 8 -136 20 -255 25 -265 5 -9 19 -46 31 -82 18 -54 23 -95 26 -240 5 -171
4 -179 -31 -349 -20 -96 -34 -182 -31 -192 3 -10 20 -30 37 -44 17 -15 44 -43
59 -64 15 -21 38 -41 52 -45 23 -5 24 -11 31 -103 6 -86 10 -101 32 -124 24
-25 31 -27 170 -34 106 -5 149 -4 159 5 8 7 43 14 77 17 87 8 108 28 108 104
0 67 -46 198 -85 239 -13 14 -28 43 -34 65 -7 26 -48 86 -116 171 -103 129
-105 133 -120 210 -12 62 -15 146 -14 394 1 252 -3 370 -21 589 l-23 273 22
132 c20 113 30 144 72 228 47 94 49 100 49 184 0 81 -2 90 -34 143 -27 44 -39
79 -52 156 -16 92 -16 106 1 229 9 72 27 192 41 266 13 74 33 205 45 290 13
95 31 183 47 228 25 69 29 73 67 83 31 9 56 8 112 -4 l71 -16 91 36 c74 29 94
33 106 23 12 -10 15 -49 15 -229 0 -133 6 -261 15 -331 8 -63 22 -189 31 -280
8 -90 22 -180 30 -199 25 -59 18 -175 -16 -276 -40 -118 -40 -185 -2 -263 16
-31 56 -133 90 -227 54 -151 63 -187 81 -325 14 -112 17 -166 11 -195 -5 -22
-10 -67 -10 -99 0 -33 -9 -127 -20 -210 -17 -125 -63 -874 -55 -884 1 -1 25
-5 53 -9 36 -4 53 -11 57 -22 3 -10 21 -26 41 -38 32 -18 40 -30 65 -109 16
-49 29 -100 29 -113 0 -13 10 -41 22 -62 19 -34 27 -39 77 -49 31 -6 77 -22
102 -36 61 -31 114 -31 161 1 23 16 51 25 75 25 70 1 77 14 77 144 l0 113 -35
49 c-20 27 -43 68 -52 91 -9 22 -33 70 -55 105 -73 121 -118 258 -137 418 -51
447 -60 827 -26 1170 26 255 36 323 61 410 40 140 43 175 21 226 -33 74 -30
220 8 338 16 50 32 129 36 175 3 46 10 91 14 100 30 61 83 280 91 376 3 44 11
89 17 100 6 11 21 79 33 150 17 95 47 201 111 392 49 144 89 273 89 286 0 15
10 31 25 41 17 11 24 23 21 34 -4 13 26 37 124 102 145 95 136 84 272 335 l66
120 60 270 c33 149 64 294 67 324 6 47 14 62 55 105 83 90 146 196 208 353 33
81 69 182 81 223 13 41 30 86 39 100 9 14 18 35 19 48 1 12 33 138 72 280 102
374 139 546 146 670 9 164 33 241 105 336 36 47 46 73 74 188 33 131 87 260
121 288 48 40 95 130 114 219 20 90 19 122 -4 199 -7 21 -6 22 31 16 24 -3 64
1 101 10 33 9 79 16 100 16 22 0 48 7 59 15 10 8 27 15 37 15 34 0 147 71 181
113 34 42 106 229 106 276 0 22 3 29 35 91 9 19 30 76 46 125 25 79 26 92 14
105 -16 16 -5 17 -240 -38 -105 -25 -132 -36 -212 -86 -74 -46 -113 -80 -190
-167 -97 -108 -98 -108 -143 -109 -41 0 -50 5 -88 43 -41 42 -41 42 -30 87 8
31 29 65 69 110 48 54 76 75 166 122 59 31 144 66 188 78 155 43 410 162 752
353 322 180 339 191 555 360 181 142 252 206 379 339 104 109 169 186 196 233
101 174 206 381 233 458 16 46 43 114 60 152 16 37 30 80 30 95 0 16 9 49 20
75 27 62 53 170 85 342 24 133 25 144 10 167 -38 57 -98 31 -110 -48 -4 -22
-17 -57 -29 -76 -13 -19 -30 -57 -39 -84 -9 -27 -93 -184 -186 -350 -92 -165
-188 -337 -211 -381 -57 -107 -191 -328 -204 -337 -5 -4 -14 -4 -18 -2 -14 9
-8 35 16 67 13 18 49 106 79 197 l55 165 10 240 c10 217 14 254 46 391 19 83
40 163 47 177 15 33 -3 62 -30 48 -39 -21 -162 -223 -240 -392 -87 -193 -131
-333 -181 -594 -37 -186 -57 -225 -115 -225 -21 0 -44 -9 -60 -22 -22 -20 -26
-33 -32 -108 -12 -163 -111 -316 -271 -420 -43 -27 -80 -46 -84 -42 -4 4 -3
25 2 47 5 22 10 127 10 234 0 209 14 359 37 405 8 15 32 95 53 177 32 124 36
150 24 160 -7 6 -18 9 -23 7 -19 -6 -109 -128 -149 -200 -55 -98 -157 -364
-238 -615 -79 -244 -111 -304 -250 -457 -103 -113 -160 -154 -341 -245 -80
-40 -103 -48 -112 -37 -7 8 -7 16 -1 22 6 6 37 91 70 189 l60 178 -6 216 -6
216 -38 87 c-40 91 -113 198 -136 198 -30 0 -36 -44 -41 -274 -2 -145 -10
-266 -20 -326 -15 -89 -22 -106 -120 -285 -159 -290 -266 -508 -314 -637 l-44
-118 -80 0 c-44 0 -104 7 -133 14 -32 9 -74 12 -107 9 -35 -4 -60 -2 -69 6 -8
6 -19 42 -26 79 -7 37 -19 83 -27 102 -7 20 -30 92 -51 161 -38 125 -39 127
-120 221 -80 93 -85 102 -187 337 l-105 242 0 119 c0 204 -48 357 -118 375
-34 8 -48 -7 -71 -78 -26 -80 -41 -210 -41 -366 0 -120 1 -129 45 -262 38
-118 45 -150 45 -220 l0 -81 -47 7 c-42 6 -58 18 -174 127 -70 66 -169 151
-221 188 -105 77 -190 174 -243 280 -54 110 -133 322 -139 380 -5 41 -24 89
-75 185 -60 113 -72 130 -102 141 -62 23 -67 20 -90 -57 l-21 -71 26 -67 c64
-164 116 -395 116 -521 0 -61 -19 -100 -50 -100 -38 0 -127 70 -287 224 -132
128 -167 167 -188 214 -34 73 -54 212 -62 417 -5 142 -10 180 -49 345 -25 102
-74 274 -111 383 l-67 197 -46 0 -47 0 -6 -172 c-12 -300 -11 -320 32 -504 24
-105 40 -202 42 -257 2 -48 3 -87 2 -87 -1 0 -27 46 -57 103 -34 64 -71 153
-95 233 -39 126 -94 259 -209 514 -74 164 -253 444 -304 476 -37 24 -37 24
-48 4z"/>
</g>
</svg>
