<?xml version="1.0" encoding="utf-8"?>
<!-- Generator: Adobe Illustrator 23.0.0, SVG Export Plug-In . SVG Version: 6.00 Build 0)  -->
<svg version="1.1" id="Слой_1" xmlns="http://www.w3.org/2000/svg" xmlns:xlink="http://www.w3.org/1999/xlink" x="0px" y="0px"
	 viewBox="0 0 991 1280" style="enable-background:new 0 0 991 1280;" xml:space="preserve">
<style type="text/css">
	.st0{fill-opacity:0;stroke:#000000;stroke-width:20;stroke-opacity:0.8;}
	.st1{fill-opacity:0.8;stroke:#000000;stroke-width:3;stroke-miterlimit:10;stroke-opacity:0.8;}
	.st2{fill:none;stroke:#000000;stroke-width:3;stroke-miterlimit:10;stroke-opacity:0.8;}
	.st3{fill:none;}
	.st4{fill:none;stroke:#000000;stroke-width:3;}


</style>
<g transform="translate(0.000000,1280.000000) scale(0.100000,-0.100000)">
	<path class="st0" d="M3190,12780c-6-11-13-48-16-83c-5-57-1-75,60-248c35-103,124-326,196-495c73-170,164-399,204-509
		c68-187,77-207,154-316c90-128,132-170,482-473c118-102,222-186,231-186c8,0,42-24,75-53c32-29,91-74,129-98c39-25,118-85,178-132
		c59-48,116-87,126-87s83-28,162-63s171-69,204-76s69-21,80-31c11-9,96-47,189-84c147-58,178-75,231-121c44-39,66-67,76-97
		c7-23,23-53,35-67c31-38,36-78,11-96c-19-13-22-12-43,19c-31,45-96,91-228,161c-90,48-129,62-220,81c-61,13-147,24-191,24
		c-44,1-101,5-127,9c-31,5-81,2-145-8l-97-16l-8-35c-6-29,5-67,68-233c47-123,97-234,132-294c54-91,62-100,125-135l67-38l153-7
		c128-5,162-3,202,11c49,16,205,23,205,9c0-5-11-26-25-48c-19-32-24-54-25-106c0-70-17-177-31-195c-5-6-20-44-33-85
		c-56-170-105-253-274-466c-94-118-176-231-197-272l-35-71h-46c-25,0-107,18-182,40c-197,56-254,63-502,58c-191-4-220-7-265-26
		c-27-12-79-28-115-37s-160-58-275-110c-203-91-214-94-335-111l-125-17l-200,31c-110,17-234,34-275,38c-41,3-101,15-132,25
		c-32,11-71,19-88,19s-58,11-92,25c-52,21-78,25-165,25c-57,0-136,6-176,14c-44,9-170,16-326,20c-243,5-262,4-450-24
		c-287-43-290-44-591-239c-107-69-306-195-441-281c-218-138-252-163-307-227c-57-67-66-84-112-215c-49-141-50-145-62-329
		c-13-204-1-495,28-664c8-49,35-223,59-385s53-322,65-355c22-62,81-330,100-449c6-38,20-105,30-150c11-44,31-184,44-311
		c45-419,48-475,35-629c-10-123-17-155-51-246c-22-58-45-139-53-180c-12-69-12-77,4-95c10-11,41-73,69-138c80-185,86-229,86-692
		v-390l-38-115c-33-103-39-135-52-305c-8-104-14-260-12-345c3-153,3-156,32-195c28-39,31-40,85-40h56l10-70c9-63,13-71,40-84
		c43-21,232-36,259-21c16,8,39,8,86,1c112-18,124,4,99,190c-8,57-19,93-33,114c-12,16-30,57-40,90s-40,98-67,144
		c-100,171-137,405-105,684c9,83,26,278,36,432c27,373,67,783,86,872c12,55,34,103,96,210c109,187,327,644,396,828
		c31,83,72,214,91,293l36,142l70-50c82-60,93-85,94-218c1-67-6-107-35-210c-20-70-45-144-55-164c-11-21-19-49-19-63
		c0-38-192-366-266-455c-34-41-90-102-123-135l-61-59v-88v-87l65-78c53-63,94-134,212-363l145-285l84-279c53-177,84-297,84-326
		c0-26,7-69,15-96c11-38,15-108,15-311c0-250,1-265,22-310c13-27,23-49,24-51c0-1,32-8,70-15c69-12,69-12,72-47c2-19,12-44,22-55
		c10-12,20-41,22-71c7-73,42-116,124-148c77-31,177-36,205-10c16,14,20,14,39,1c19-14,27-14,66,0l44,15v103c0,139-12,191-75,315
		c-29,58-58,130-64,160s-32,129-57,219c-37,135-54,177-93,240c-40,63-53,98-78,202c-21,83-46,155-75,215c-25,49-58,127-73,174
		s-43,119-62,160s-38,93-43,115c-59,270-62,291-55,362c10,108,59,201,182,343c55,63,151,160,214,215c228,201,508,478,549,544
		c21,35,53,78,70,96l32,33l49-19c33-13,75-19,127-19c92,0,242-16,253-27c5-5,33-100,64-213c64-234,125-546,125-638
		c0-134,49-493,85-623c19-70,35-151,35-180c1-30,7-65,15-79c10-18,14-60,15-148c0-68,7-182,15-255s21-243,30-380
		c8-136,20-255,25-265c5-9,19-46,31-82c18-54,23-95,26-240c5-171,4-179-31-349c-20-96-34-182-31-192s20-30,37-44c17-15,44-43,59-64
		s38-41,52-45c23-5,24-11,31-103c6-86,10-101,32-124c24-25,31-27,170-34c106-5,149-4,159,5c8,7,43,14,77,17c87,8,108,28,108,104
		c0,67-46,198-85,239c-13,14-28,43-34,65c-7,26-48,86-116,171c-103,129-105,133-120,210c-12,62-15,146-14,394c1,252-3,370-21,589
		l-23,273l22,132c20,113,30,144,72,228c47,94,49,100,49,184c0,81-2,90-34,143c-27,44-39,79-52,156c-16,92-16,106,1,229
		c9,72,27,192,41,266c13,74,33,205,45,290c13,95,31,183,47,228c25,69,29,73,67,83c31,9,56,8,112-4l71-16l91,36c74,29,94,33,106,23
		s15-49,15-229c0-133,6-261,15-331c8-63,22-189,31-280c8-90,22-180,30-199c25-59,18-175-16-276c-40-118-40-185-2-263
		c16-31,56-133,90-227c54-151,63-187,81-325c14-112,17-166,11-195c-5-22-10-67-10-99c0-33-9-127-20-210c-17-125-63-874-55-884
		c1-1,25-5,53-9c36-4,53-11,57-22c3-10,21-26,41-38c32-18,40-30,65-109c16-49,29-100,29-113s10-41,22-62c19-34,27-39,77-49
		c31-6,77-22,102-36c61-31,114-31,161,1c23,16,51,25,75,25c70,1,77,14,77,144v113l-35,49c-20,27-43,68-52,91c-9,22-33,70-55,105
		c-73,121-118,258-137,418c-51,447-60,827-26,1170c26,255,36,323,61,410c40,140,43,175,21,226c-33,74-30,220,8,338
		c16,50,32,129,36,175c3,46,10,91,14,100c30,61,83,280,91,376c3,44,11,89,17,100s21,79,33,150c17,95,47,201,111,392
		c49,144,89,273,89,286c0,15,10,31,25,41c17,11,24,23,21,34c-4,13,26,37,124,102c145,95,136,84,272,335l66,120l60,270
		c33,149,64,294,67,324c6,47,14,62,55,105c83,90,146,196,208,353c33,81,69,182,81,223c13,41,30,86,39,100s18,35,19,48
		c1,12,33,138,72,280c102,374,139,546,146,670c9,164,33,241,105,336c36,47,46,73,74,188c33,131,87,260,121,288c48,40,95,130,114,219
		c20,90,19,122-4,199c-7,21-6,22,31,16c24-3,64,1,101,10c33,9,79,16,100,16c22,0,48,7,59,15c10,8,27,15,37,15c34,0,147,71,181,113
		s106,229,106,276c0,22,3,29,35,91c9,19,30,76,46,125c25,79,26,92,14,105c-16,16-5,17-240-38c-105-25-132-36-212-86
		c-74-46-113-80-190-167c-97-108-98-108-143-109c-41,0-50,5-88,43c-41,42-41,42-30,87c8,31,29,65,69,110c48,54,76,75,166,122
		c59,31,144,66,188,78c155,43,410,162,752,353c322,180,339,191,555,360c181,142,252,206,379,339c104,109,169,186,196,233
		c101,174,206,381,233,458c16,46,43,114,60,152c16,37,30,80,30,95c0,16,9,49,20,75c27,62,53,170,85,342c24,133,25,144,10,167
		c-38,57-98,31-110-48c-4-22-17-57-29-76c-13-19-30-57-39-84s-93-184-186-350c-92-165-188-337-211-381c-57-107-191-328-204-337
		c-5-4-14-4-18-2c-14,9-8,35,16,67c13,18,49,106,79,197l55,165l10,240c10,217,14,254,46,391c19,83,40,163,47,177c15,33-3,62-30,48
		c-39-21-162-223-240-392c-87-193-131-333-181-594c-37-186-57-225-115-225c-21,0-44-9-60-22c-22-20-26-33-32-108
		c-12-163-111-316-271-420c-43-27-80-46-84-42s-3,25,2,47s10,127,10,234c0,209,14,359,37,405c8,15,32,95,53,177
		c32,124,36,150,24,160c-7,6-18,9-23,7c-19-6-109-128-149-200c-55-98-157-364-238-615c-79-244-111-304-250-457
		c-103-113-160-154-341-245c-80-40-103-48-112-37c-7,8-7,16-1,22s37,91,70,189l60,178l-6,216l-6,216l-38,87c-40,91-113,198-136,198
		c-30,0-36-44-41-274c-2-145-10-266-20-326c-15-89-22-106-120-285c-159-290-266-508-314-637l-44-118h-80c-44,0-104,7-133,14
		c-32,9-74,12-107,9c-35-4-60-2-69,6c-8,6-19,42-26,79s-19,83-27,102c-7,20-30,92-51,161c-38,125-39,127-120,221
		c-80,93-85,102-187,337l-105,242v119c0,204-48,357-118,375c-34,8-48-7-71-78c-26-80-41-210-41-366c0-120,1-129,45-262
		c38-118,45-150,45-220v-81l-47,7c-42,6-58,18-174,127c-70,66-169,151-221,188c-105,77-190,174-243,280c-54,110-133,322-139,380
		c-5,41-24,89-75,185c-60,113-72,130-102,141c-62,23-67,20-90-57l-21-71l26-67c64-164,116-395,116-521c0-61-19-100-50-100
		c-38,0-127,70-287,224c-132,128-167,167-188,214c-34,73-54,212-62,417c-5,142-10,180-49,345c-25,102-74,274-111,383l-67,197h-46
		h-47l-6-172c-12-300-11-320,32-504c24-105,40-202,42-257c2-48,3-87,2-87s-27,46-57,103c-34,64-71,153-95,233
		c-39,126-94,259-209,514c-74,164-253,444-304,476C3201,12800,3201,12800,3190,12780z"/>
</g>
<ellipse class="st1" cx="632.2" cy="502.6" rx="20.9" ry="17.8"/>
<path class="st2" d="M580.9,427.3c0,0-1.9,58.6,29.5,81.1c19.1,13.7,28.8,21.2,59.7-9c23.5-23,49.3-68,49.3-68"/>
<circle class="st3" cx="607.2" cy="393.9" r="14"/>
<circle class="st3" cx="700" cy="404.6" r="14"/>
<path class="st4" d="M631.6,393.9c0,13.8-11.2,25-25,25c-12.4,0-22.5-10.1-22.5-22.5c0-11.2,9.1-20.3,20.3-20.3
	c10.1,0,18.2,8.2,18.2,18.2c0,9.1-7.3,16.4-16.4,16.4c-8.2,0-14.8-6.6-14.8-14.8c0-7.3,5.9-13.3,13.3-13.3c6.6,0,12,5.4,12,12
	c0,5.9-4.8,10.8-10.8,10.8c-5.3,0-9.7-4.3-9.7-9.7c0-4.8,3.9-8.7,8.7-8.7c4.3,0,7.8,3.5,7.8,7.8c0,3.9-3.2,7.1-7.1,7.1
	c-3.5,0-6.4-2.8-6.4-6.4c0-3.2,2.6-5.7,5.7-5.7c2.8,0,5.1,2.3,5.1,5.1c0,2.6-2.1,4.6-4.6,4.6c-2.3,0-4.2-1.9-4.2-4.2
	c0-2.1,1.7-3.8,3.8-3.8c1.9,0,3.4,1.5,3.4,3.4"/>
<path class="st4" d="M724.5,404.5c0,13.8-11.2,25-25,25c-12.4,0-22.5-10.1-22.5-22.5c0-11.2,9.1-20.3,20.3-20.3
	c10.1,0,18.2,8.2,18.2,18.2c0,9.1-7.3,16.4-16.4,16.4c-8.2,0-14.8-6.6-14.8-14.8c0-7.3,5.9-13.3,13.3-13.3c6.6,0,12,5.4,12,12
	c0,5.9-4.8,10.8-10.8,10.8c-5.3,0-9.7-4.3-9.7-9.7c0-4.8,3.9-8.7,8.7-8.7c4.3,0,7.8,3.5,7.8,7.8c0,3.9-3.2,7.1-7.1,7.1
	c-3.5,0-6.4-2.8-6.4-6.4c0-3.2,2.6-5.7,5.7-5.7c2.8,0,5.1,2.3,5.1,5.1c0,2.6-2.1,4.6-4.6,4.6c-2.3,0-4.2-1.9-4.2-4.2
	c0-2.1,1.7-3.8,3.8-3.8c1.9,0,3.4,1.5,3.4,3.4"/>
</svg>
