<?xml version="1.0" ?><svg height="16px" version="1.1" viewBox="0 0 16 16" width="16px" xmlns="http://www.w3.org/2000/svg" xmlns:sketch="http://www.bohemiancoding.com/sketch/ns" xmlns:xlink="http://www.w3.org/1999/xlink"><title/><defs/><g fill="none" fill-rule="evenodd" id="Icons with numbers" stroke="none" stroke-width="1"><g fill="#000000" id="Group" transform="translate(-576.000000, -96.000000)"><path d="M579,99 C579,97.8954305 579.895431,97 581,97 L587,97 C588.104569,97 589,97.8954305 589,99 L589.975598,107.780386 C589.874271,107.333803 589.469839,107 588.997527,107 L579.002473,107 C578.448823,107 578,107.44266 578,107.998957 L578,108 L577.984619,108 Z M579.495545,108 C578.669578,108 578,108.665797 578,109.5 L578,109.5 C578,110.328427 578.679554,111 579.495545,111 L588.504455,111 C589.330422,111 590,110.334203 590,109.5 L590,109.5 C590,108.671573 589.320446,108 588.504455,108 L579.495545,108 Z M587,109 L587,110 L588,110 L588,109 L587,109 Z M587,109" id="Rectangle 222"/></g></g></svg>